<svg width="32" height="24" viewBox="0 0 32 24" fill="none" xmlns="http://www.w3.org/2000/svg">
<path d="M30.7965 20.4607C30.8281 20.787 30.7911 21.1164 30.688 21.4276C30.5848 21.7388 30.4177 22.0251 30.1975 22.268C29.9772 22.5108 29.7086 22.705 29.4089 22.838C29.1092 22.971 28.785 23.0399 28.4571 23.0403H7.7732C3.96592 23.082 0.787873 20.1447 0.530433 16.3458C0.482303 15.3915 0.628685 14.4373 0.960687 13.5413C1.29269 12.6453 1.80338 11.8262 2.46174 11.1336C3.12009 10.4411 3.91237 9.88962 4.79043 9.51272C5.66849 9.13582 6.61401 8.94136 7.56954 8.94116H26.1073C27.1804 8.94229 28.221 9.30995 29.0567 9.98326C29.8924 10.6566 30.4731 11.5951 30.7025 12.6435L30.7182 12.727C30.8519 13.4083 30.8332 14.1108 30.6635 14.7841C30.4938 15.4573 30.1773 16.0847 29.7366 16.6212C29.2959 17.1577 28.742 17.5901 28.1145 17.8874C27.487 18.1846 26.8016 18.3394 26.1073 18.3406H28.3579C28.9544 18.3307 29.5334 18.5417 29.9836 18.9331C30.4338 19.3245 30.7234 19.8686 30.7965 20.4607Z" fill="#A4C2F7"/>
<path d="M28.3586 18.3405H26.792C27.3885 18.3306 27.9675 18.5417 28.4177 18.9331C28.8679 19.3245 29.1575 19.8686 29.2306 20.4606C29.2622 20.787 29.2252 21.1164 29.1221 21.4276C29.0189 21.7388 28.8518 22.0251 28.6316 22.2679C28.4113 22.5108 28.1427 22.705 27.843 22.838C27.5433 22.971 27.2191 23.0399 26.8912 23.0402H28.4578C28.7857 23.0399 29.1099 22.971 29.4096 22.838C29.7093 22.705 29.9779 22.5108 30.1981 22.2679C30.4184 22.0251 30.5855 21.7388 30.6886 21.4276C30.7918 21.1164 30.8288 20.787 30.7972 20.4606C30.724 19.8686 30.4345 19.3245 29.9843 18.9331C29.5341 18.5417 28.955 18.3306 28.3586 18.3405Z" fill="#7FACFA"/>
<path d="M29.1363 12.6435L29.1519 12.727C29.2857 13.4083 29.267 14.1108 29.0973 14.7841C28.9276 15.4573 28.611 16.0847 28.1703 16.6212C27.7296 17.1577 27.1757 17.5901 26.5482 17.8874C25.9208 18.1846 25.2353 18.3394 24.541 18.3406H26.1076C26.8019 18.3394 27.4874 18.1846 28.1148 17.8874C28.7423 17.5901 29.2962 17.1577 29.7369 16.6212C30.1776 16.0847 30.4942 15.4573 30.6639 14.7841C30.8336 14.1108 30.8522 13.4083 30.7185 12.727L30.7028 12.6435C30.4734 11.5951 29.8928 10.6566 29.0571 9.98326C28.2214 9.30995 27.1808 8.94229 26.1076 8.94116H24.541C25.6142 8.94229 26.6548 9.30995 27.4905 9.98326C28.3262 10.6566 28.9068 11.5951 29.1363 12.6435Z" fill="#7FACFA"/>
<path d="M30.7029 12.6434C30.4734 11.595 29.8928 10.6565 29.0571 9.98318C28.2214 9.30988 27.1808 8.94222 26.1076 8.94109H7.56991C5.97678 8.9426 4.43104 9.48321 3.18424 10.475C1.93744 11.4667 1.06297 12.8512 0.703125 14.4032L2.68222 5.12911C2.95612 3.84349 3.66305 2.69086 4.68483 1.86394C5.7066 1.03701 6.98129 0.585912 8.29575 0.58606H23.5541C24.8686 0.585912 26.1433 1.03701 27.165 1.86394C28.1868 2.69086 28.8938 3.84349 29.1677 5.12911L30.7029 12.6434Z" fill="#E8EDFC"/>
<path d="M29.1674 5.12911C28.8935 3.84349 28.1866 2.69086 27.1648 1.86394C26.143 1.03701 24.8683 0.585912 23.5539 0.58606H21.9873C23.3018 0.585912 24.5765 1.03701 25.5982 1.86394C26.62 2.69086 27.3269 3.84349 27.6008 5.12911L28.5162 9.60949C29.0684 9.93929 29.5472 10.3786 29.9232 10.9004C30.2992 11.4221 30.5644 12.0153 30.7026 12.6434L29.1674 5.12911Z" fill="#CAD9FC"/>
<path d="M0.703545 14.4032L0.666992 14.5651L0.703545 14.4032Z" fill="#E8EDFC"/>
<path d="M7.773 23.0402H9.33957C4.78608 23.0402 1.20804 18.9149 2.26913 14.4032L4.24823 5.12911C4.52212 3.84349 5.22906 2.69086 6.25083 1.86394C7.27261 1.03701 8.54729 0.585912 9.86176 0.58606H8.29519C6.98072 0.585912 5.70604 1.03701 4.68426 1.86394C3.66249 2.69086 2.95556 3.84349 2.68166 5.12911L0.702561 14.4032C-0.358528 18.9149 3.21951 23.0402 7.773 23.0402Z" fill="white"/>
<path d="M3.53711 22.3279L4.0969 21.4459C4.64768 21.7867 5.24 22.0552 5.85928 22.2449C6.48382 22.4156 7.12768 22.507 7.7752 22.518V23.5624C7.02847 23.5519 6.28696 23.4464 5.56738 23.249C4.85359 23.0312 4.17112 22.7216 3.53711 22.3279Z" fill="white"/>
<path d="M5.71914 23.2653C5.58065 23.266 5.44755 23.2117 5.34913 23.1142C5.25072 23.0168 5.19503 22.8842 5.19434 22.7457C5.19365 22.6073 5.248 22.4742 5.34544 22.3757C5.44288 22.2773 5.57543 22.2216 5.71392 22.2209H5.71914C5.85764 22.2209 5.99046 22.276 6.08839 22.3739C6.18632 22.4718 6.24133 22.6046 6.24133 22.7431C6.24133 22.8816 6.18632 23.0145 6.08839 23.1124C5.99046 23.2103 5.85764 23.2653 5.71914 23.2653Z" fill="#428DFF"/>
<path d="M31.2319 12.6298L29.6789 5.02046C29.375 3.62036 28.6023 2.36593 27.4886 1.46463C26.3748 0.563339 24.9869 0.0691664 23.5542 0.0638428L8.29579 0.0638428C6.8632 0.0690681 5.47531 0.56315 4.36168 1.46436C3.24805 2.36558 2.47541 3.61993 2.17156 5.01994L0.154866 14.4559C0.154086 14.4684 0.154086 14.481 0.154866 14.4935C0.0282731 15.1116 -0.0210162 15.7431 0.0081304 16.3734C0.0775202 17.5772 0.434009 18.7469 1.04781 19.7848C1.67279 20.8111 2.52405 21.6809 3.53656 22.3279C3.59577 22.3663 3.66224 22.3922 3.73184 22.4039C3.80145 22.4156 3.87273 22.4129 3.94125 22.396C4.00978 22.3791 4.0741 22.3483 4.13024 22.3055C4.18638 22.2627 4.23314 22.2088 4.26763 22.1472C4.33274 22.0302 4.35116 21.8928 4.3192 21.7627C4.28724 21.6326 4.20725 21.5195 4.0953 21.4459C3.22012 20.8864 2.48399 20.1347 1.94284 19.248C1.41645 18.357 1.11032 17.3532 1.0499 16.3201C1.0062 15.4365 1.14241 14.5531 1.45028 13.7237C1.75814 12.8942 2.23124 12.136 2.8409 11.4948C3.45056 10.8537 4.18407 10.343 4.99697 9.99379C5.80987 9.64457 6.68522 9.46408 7.56995 9.46325H26.1077C27.2156 9.46325 28.2782 9.90338 29.0616 10.6868C29.845 11.4702 30.2852 12.5328 30.2852 13.6408C30.2852 14.7487 29.845 15.8113 29.0616 16.5947C28.2782 17.3781 27.2156 17.8183 26.1077 17.8183H7.56995C7.31453 17.8179 7.062 17.7641 6.82862 17.6603C6.59524 17.5565 6.38617 17.405 6.21486 17.2155C6.04355 17.0261 5.91379 16.8029 5.83393 16.5602C5.75407 16.3176 5.72588 16.061 5.75117 15.8068C5.81423 15.3446 6.04504 14.9217 6.39966 14.6185C6.75429 14.3154 7.20798 14.1533 7.67439 14.1629H26.1077C26.2462 14.1629 26.379 14.1079 26.4769 14.01C26.5748 13.9121 26.6299 13.7793 26.6299 13.6408C26.6299 13.5023 26.5748 13.3694 26.4769 13.2715C26.379 13.1736 26.2462 13.1186 26.1077 13.1186H7.67439C6.94908 13.1109 6.24629 13.3703 5.6999 13.8473C5.15351 14.3244 4.8017 14.9858 4.71149 15.7055C4.67215 16.1047 4.71677 16.5077 4.84248 16.8886C4.96819 17.2695 5.17221 17.6199 5.44142 17.9172C5.71064 18.2146 6.03909 18.4523 6.40567 18.6151C6.77225 18.7779 7.16884 18.8623 7.56995 18.8627H28.3567C28.8232 18.8531 29.2768 19.0157 29.6309 19.3194C29.985 19.6231 30.2148 20.0467 30.2763 20.5091C30.3024 20.7637 30.2744 21.021 30.194 21.264C30.1137 21.507 29.9828 21.7302 29.81 21.919C29.6385 22.1073 29.4297 22.2579 29.1969 22.361C28.964 22.4641 28.7122 22.5176 28.4575 22.518H7.77465C7.63616 22.518 7.50334 22.573 7.40541 22.6709C7.30748 22.7689 7.25246 22.9017 7.25246 23.0402C7.25246 23.1787 7.30748 23.3115 7.40541 23.4094C7.50334 23.5073 7.63616 23.5624 7.77465 23.5624H28.4575C28.8583 23.5624 29.2547 23.4785 29.6212 23.3161C29.9876 23.1537 30.316 22.9165 30.5853 22.6195C30.8545 22.3226 31.0586 21.9726 31.1845 21.592C31.3103 21.2115 31.3551 20.8088 31.316 20.4099C31.2458 19.8167 30.9946 19.2594 30.5966 18.8139C30.1986 18.3685 29.6731 18.0564 29.0915 17.9201C29.9228 17.3447 30.5682 16.5392 30.9485 15.6023C31.3288 14.6655 31.4275 13.6381 31.2324 12.646C31.2309 12.6387 31.2324 12.6345 31.2319 12.6298ZM26.1077 8.41887H7.56995C6.54356 8.41565 5.52742 8.62299 4.58434 9.02806C3.64126 9.43314 2.79129 10.0273 2.08697 10.7739C2.05041 10.8121 2.02013 10.8538 1.98253 10.8925L3.19296 5.23769C3.44615 4.07119 4.08993 3.02605 5.01783 2.27515C5.94572 1.52425 7.10214 1.11258 8.29579 1.10822H23.5542C24.7472 1.11239 25.9031 1.52349 26.8308 2.27357C27.7585 3.02365 28.4026 4.06782 28.6565 5.23352L29.5792 9.75097C28.6261 8.89373 27.3896 8.41927 26.1077 8.41887Z" fill="#428DFF"/>
<path d="M12.5305 2.15259H8.29552C7.3408 2.15602 6.41585 2.48519 5.67361 3.08567C4.93137 3.68615 4.4163 4.52196 4.21357 5.45491C4.18476 5.59043 4.21097 5.73184 4.28642 5.84803C4.36188 5.96422 4.4804 6.04568 4.61591 6.07449C4.75143 6.1033 4.89284 6.07709 5.00903 6.00163C5.12522 5.92618 5.20668 5.80766 5.23549 5.67214C5.38747 4.97279 5.7736 4.34627 6.33003 3.89619C6.88646 3.44611 7.57985 3.19943 8.29552 3.19697H12.5305C12.669 3.19697 12.8018 3.14195 12.8997 3.04402C12.9976 2.94609 13.0527 2.81327 13.0527 2.67478C13.0527 2.53628 12.9976 2.40346 12.8997 2.30553C12.8018 2.2076 12.669 2.15259 12.5305 2.15259Z" fill="#428DFF"/>
<path d="M14.6198 3.19697C14.9082 3.19697 15.142 2.96317 15.142 2.67478C15.142 2.38638 14.9082 2.15259 14.6198 2.15259C14.3314 2.15259 14.0977 2.38638 14.0977 2.67478C14.0977 2.96317 14.3314 3.19697 14.6198 3.19697Z" fill="#428DFF"/>
</svg>
