<svg width="32" height="33" viewBox="0 0 32 33" fill="none" xmlns="http://www.w3.org/2000/svg">
<g clip-path="url(#clip0_257_19141)">
<path d="M13.2441 28.0893C15.208 30.5257 18.2166 32.0231 21.4575 32.0231L22.085 26.9545L21.4575 21.8859L13.2441 28.0893ZM19.6389 10.809L18.7589 8.45589C20.3048 6.80714 21.1082 6.09166 21.4575 5.75183L22.085 9.29009L21.4575 12.8283L19.6389 10.809Z" fill="#CD0000"/>
<path d="M21.458 32.023C27.2708 32.023 32.0002 27.294 32.0002 21.4809C32.0002 16.5682 25.0071 9.1326 21.458 5.75171V32.023Z" fill="#A80000"/>
<path d="M11.2941 0.104736C7.51649 3.68641 0 11.7262 0 16.9642C0 23.1917 5.06635 28.2583 11.2941 28.2583L11.9216 14.1815L11.2941 0.104736Z" fill="#FF8066"/>
<path d="M11.2939 28.2583C17.5213 28.2583 22.5881 23.192 22.5881 16.9642C22.5881 11.713 15.0928 3.72381 11.2939 0.104736V28.2583Z" fill="#FF4D4D"/>
<path d="M4.70605 16.9642C4.70605 20.5968 7.66141 23.5524 11.2943 23.5524L11.9217 16.9642L11.2943 10.376C7.66166 10.376 4.70605 13.3313 4.70605 16.9642Z" fill="#FFF5F5"/>
<path d="M11.2939 10.376V23.5524C14.9266 23.5524 17.8822 20.5971 17.8822 16.9642C17.8822 13.3315 14.9268 10.376 11.2939 10.376Z" fill="#ECE6F2"/>
<path d="M10.3531 16.0231H8.4707V17.9055H10.3531V19.7878H11.2942L11.9217 16.9643L11.2942 14.1407H10.3531V16.0231Z" fill="#FF4D4D"/>
<path d="M12.2351 19.7878V17.9055H14.1175V16.0231H12.2351V14.1407H11.2939V19.7878H12.2351Z" fill="#CD0000"/>
</g>
<defs>
<clipPath id="clip0_257_19141">
<rect width="32" height="32" fill="white" transform="translate(0 0.0638428)"/>
</clipPath>
</defs>
</svg>
