<svg width="26" height="31" viewBox="0 0 26 31" fill="none" xmlns="http://www.w3.org/2000/svg">
<path d="M16.7297 8.82183C16.649 8.82187 16.5701 8.79537 16.5025 8.74556L16.2229 8.54043C16.2153 8.53479 16.2078 8.52883 16.2005 8.52257C15.9936 8.34803 15.8562 8.08727 15.8185 7.79765C15.7808 7.50803 15.8459 7.21326 15.9996 6.9782C16.0206 6.94598 16.0295 6.90562 16.0243 6.86598C16.0191 6.82633 16.0003 6.79062 15.972 6.7667L15.7817 6.60629C15.6924 6.531 15.6331 6.41849 15.6168 6.29351C15.6005 6.16854 15.6286 6.04133 15.6949 5.93989C15.7612 5.83844 15.8603 5.77106 15.9703 5.75257C16.0803 5.73408 16.1923 5.76599 16.2816 5.84128L16.472 6.00205C16.6787 6.17676 16.8159 6.43748 16.8536 6.727C16.8913 7.01652 16.8263 7.31119 16.6729 7.54636C16.6528 7.57713 16.6438 7.61541 16.6476 7.65349C16.6513 7.69156 16.6677 7.72658 16.6933 7.75149L16.9576 7.94542C17.0337 8.00123 17.0918 8.08352 17.1233 8.17997C17.1548 8.27643 17.1579 8.38186 17.1323 8.48052C17.1066 8.57917 17.0535 8.66573 16.9809 8.72727C16.9084 8.7888 16.8202 8.82194 16.7297 8.82183Z" fill="#F9B534"/>
<path d="M20.2256 3.85809C20.2184 3.85809 20.2113 3.85809 20.2041 3.8575C20.1491 3.85435 20.0952 3.83894 20.0455 3.81212C19.9957 3.78531 19.9511 3.74763 19.9142 3.70123C19.8772 3.65483 19.8487 3.60062 19.8302 3.5417C19.8117 3.48277 19.8036 3.42029 19.8064 3.35781L19.8261 2.9135C19.6177 2.89271 19.4244 2.78096 19.287 2.60172C19.1496 2.42249 19.0787 2.18973 19.0892 1.95236L19.1067 1.55937C19.1088 1.49642 19.1219 1.43458 19.1453 1.37743C19.1686 1.32028 19.2017 1.26896 19.2426 1.22644C19.2836 1.18392 19.3315 1.15104 19.3837 1.1297C19.4359 1.10837 19.4913 1.09901 19.5466 1.10216C19.602 1.10531 19.6563 1.12091 19.7064 1.14806C19.7564 1.1752 19.8012 1.21336 19.8382 1.26031C19.8752 1.30726 19.9036 1.36208 19.9218 1.42159C19.94 1.4811 19.9476 1.54412 19.9442 1.60701L19.9285 1.96665C20.137 1.98741 20.3302 2.09916 20.4676 2.2784C20.605 2.45764 20.6759 2.69041 20.6654 2.92779L20.6444 3.40562C20.639 3.52767 20.5925 3.6427 20.5146 3.72691C20.4366 3.81113 20.3332 3.85809 20.2256 3.85809ZM12.9847 8.08928C12.9147 8.08935 12.8459 8.06953 12.7844 8.03164C12.7229 7.99374 12.6707 7.93897 12.6326 7.87231L12.3872 7.443C12.3823 7.43431 12.3776 7.42546 12.3731 7.41645C12.2222 7.10958 12.1845 6.74725 12.2684 6.40889C12.3522 6.07054 12.5508 5.78377 12.8205 5.61146C12.8582 5.58748 12.8913 5.55533 12.918 5.51682C12.9446 5.47832 12.9644 5.43422 12.9761 5.38704C12.9877 5.33987 12.9911 5.29054 12.986 5.24188C12.9809 5.19322 12.9674 5.14617 12.9463 5.10344L12.7894 4.78536C12.762 4.73076 12.7443 4.67054 12.7375 4.60816C12.7306 4.54578 12.7347 4.48248 12.7495 4.4219C12.7643 4.36133 12.7895 4.30468 12.8237 4.25522C12.8578 4.20576 12.9003 4.16447 12.9485 4.13373C12.9968 4.10299 13.05 4.08341 13.1049 4.07611C13.1599 4.06881 13.2156 4.07395 13.2688 4.09121C13.322 4.10848 13.3717 4.13754 13.415 4.17672C13.4582 4.2159 13.4943 4.26442 13.521 4.31949L13.6779 4.63757C13.7529 4.78945 13.8008 4.95661 13.8188 5.12952C13.8369 5.30243 13.8249 5.47769 13.7833 5.6453C13.7418 5.81291 13.6716 5.96958 13.5767 6.10636C13.4819 6.24315 13.3642 6.35737 13.2305 6.4425C13.1562 6.48997 13.1011 6.56833 13.0766 6.66107C13.0522 6.75382 13.0604 6.85372 13.0995 6.93974L13.336 7.35339C13.3771 7.42525 13.4004 7.50838 13.4034 7.59401C13.4063 7.67965 13.389 7.76461 13.353 7.83996C13.317 7.9153 13.2639 7.97823 13.199 8.02211C13.1342 8.06599 13.0602 8.08919 12.9848 8.08928H12.9847Z" fill="#65D1DF"/>
<path d="M12.7228 2.85329C12.6512 2.85324 12.5809 2.8324 12.5185 2.79275C12.456 2.7531 12.4035 2.69597 12.366 2.62678C12.3285 2.55759 12.3072 2.47865 12.3041 2.39747C12.301 2.31628 12.3163 2.23555 12.3484 2.16295C12.4527 1.92669 12.6171 1.73144 12.8202 1.60247C12.8961 1.55395 12.952 1.47322 12.9755 1.37797C12.9991 1.28273 12.9885 1.18074 12.946 1.09439L12.789 0.77631C12.7616 0.721714 12.744 0.661491 12.7371 0.599111C12.7303 0.536732 12.7344 0.47343 12.7492 0.412856C12.7639 0.352281 12.7891 0.295632 12.8233 0.246173C12.8575 0.196714 12.8999 0.155424 12.9482 0.124684C12.9964 0.0939431 13.0496 0.0743599 13.1046 0.0670629C13.1595 0.0597659 13.2152 0.0648995 13.2684 0.0821677C13.3216 0.0994359 13.3713 0.128497 13.4146 0.167676C13.4579 0.206855 13.4939 0.255377 13.5206 0.310445L13.6775 0.628524C13.8286 0.935322 13.8663 1.29765 13.7825 1.63602C13.6987 1.97439 13.5001 2.26117 13.2303 2.43345C13.1732 2.46957 13.127 2.52436 13.0977 2.59071C13.0628 2.66966 13.0092 2.73604 12.943 2.78241C12.8768 2.82878 12.8006 2.85332 12.7228 2.85329Z" fill="#64A053"/>
<path d="M23.7792 7.56227H23.7739C23.4645 7.55765 23.1692 7.41378 22.9531 7.16222C22.7369 6.91065 22.6173 6.57194 22.6207 6.2204C22.6217 6.12152 22.588 6.02624 22.5273 5.95544C22.4665 5.88464 22.3835 5.84409 22.2964 5.84266L21.9755 5.83832C21.8643 5.83758 21.7579 5.78669 21.6797 5.69684C21.6015 5.60699 21.558 5.48554 21.5586 5.3592C21.5592 5.23287 21.604 5.112 21.6831 5.02319C21.7622 4.93438 21.8692 4.88489 21.9804 4.88563H21.9856L22.3066 4.88997C22.6161 4.89468 22.9112 5.03857 23.1274 5.29009C23.3436 5.5416 23.4631 5.88023 23.4598 6.23172C23.4589 6.32855 23.4911 6.42202 23.5496 6.49244C23.6081 6.56285 23.6884 6.60472 23.7736 6.60922L24.2072 6.58308C24.2622 6.57977 24.3172 6.5888 24.3691 6.60965C24.421 6.6305 24.4688 6.66277 24.5098 6.7046C24.5507 6.74643 24.584 6.79702 24.6078 6.85346C24.6315 6.90991 24.6452 6.97112 24.6481 7.03358C24.651 7.09605 24.6431 7.15856 24.6247 7.21754C24.6064 7.27652 24.578 7.33081 24.5411 7.37732C24.5043 7.42384 24.4598 7.46165 24.4101 7.48861C24.3604 7.51557 24.3065 7.53115 24.2515 7.53446L23.8016 7.56155C23.7941 7.56203 23.7866 7.56227 23.7792 7.56227Z" fill="#F9B534"/>
<path d="M17.326 4.63701C17.2941 4.63699 17.2624 4.63285 17.2313 4.62468L16.7521 4.49904C16.6277 4.46645 16.5102 4.40635 16.4063 4.32217C16.3024 4.238 16.2141 4.13139 16.1465 4.00845C16.0788 3.88551 16.0332 3.74863 16.0121 3.60565C15.9911 3.46266 15.995 3.31636 16.0237 3.1751C16.0316 3.13607 16.0256 3.09508 16.0069 3.06111C15.9882 3.02714 15.9585 3.00295 15.9241 2.99385L15.3416 2.84113C15.2332 2.8127 15.1392 2.73654 15.0803 2.6294C15.0214 2.52226 15.0023 2.39291 15.0274 2.26981C15.0524 2.14671 15.1194 2.03995 15.2138 1.97301C15.3081 1.90606 15.4219 1.88443 15.5303 1.91285L16.1128 2.06564C16.3638 2.13184 16.5813 2.30839 16.7178 2.55656C16.8543 2.80472 16.8986 3.10425 16.841 3.38946C16.837 3.40879 16.8365 3.42882 16.8393 3.4484C16.8422 3.46797 16.8485 3.48672 16.8577 3.50356C16.867 3.52039 16.879 3.535 16.8933 3.54653C16.9075 3.55806 16.9236 3.5663 16.9406 3.57077L17.4199 3.6964C17.5205 3.72244 17.6091 3.78969 17.6688 3.88528C17.7285 3.98088 17.755 4.09811 17.7434 4.21455C17.7318 4.331 17.6827 4.43848 17.6057 4.51645C17.5287 4.59443 17.4291 4.63741 17.3259 4.63718L17.326 4.63701Z" fill="#F7685F"/>
<path d="M19.5786 7.51314C19.5098 7.51325 19.442 7.49408 19.3812 7.45735C19.3205 7.42062 19.2686 7.36745 19.2302 7.30254L18.8917 6.73093C18.8609 6.67902 18.8395 6.62074 18.8286 6.55942C18.8177 6.4981 18.8175 6.43494 18.8281 6.37355C18.8387 6.31216 18.8598 6.25374 18.8903 6.20163C18.9208 6.14952 18.96 6.10473 19.0057 6.06982C19.0514 6.03492 19.1027 6.01058 19.1567 5.99819C19.2106 5.98581 19.2662 5.98563 19.3203 5.99765C19.3743 6.00968 19.4258 6.03368 19.4716 6.06828C19.5175 6.10289 19.5569 6.14741 19.5877 6.19933L19.9262 6.77124C19.9686 6.84289 19.9931 6.92629 19.997 7.01252C20.0009 7.09876 19.9842 7.18458 19.9485 7.26081C19.9128 7.33705 19.8595 7.40082 19.7943 7.44532C19.7292 7.48982 19.6546 7.51337 19.5786 7.51344V7.51314Z" fill="#64A053"/>
<path d="M9.26939 8.82183C9.17883 8.82194 9.09068 8.78874 9.01811 8.72721C8.94554 8.66567 8.89245 8.57911 8.86679 8.48045C8.84114 8.3818 8.84428 8.27637 8.87576 8.17991C8.90724 8.08346 8.96535 8.00117 9.04142 7.94536L9.30572 7.75143C9.33135 7.72653 9.3477 7.69152 9.35149 7.65346C9.35527 7.6154 9.3462 7.57712 9.32611 7.54636C9.17276 7.31119 9.10779 7.01653 9.14546 6.72701C9.18313 6.4375 9.32035 6.17678 9.52703 6.00205L9.71746 5.84128C9.80677 5.76599 9.91875 5.73408 10.0288 5.75257C10.1388 5.77106 10.2378 5.83844 10.3041 5.93989C10.3704 6.04133 10.3985 6.16854 10.3822 6.29351C10.366 6.41849 10.3066 6.531 10.2173 6.60629L10.027 6.76706C9.99869 6.79099 9.9799 6.8267 9.97474 6.86635C9.96958 6.90599 9.97848 6.94635 9.99948 6.97856C10.1531 7.21361 10.2183 7.50837 10.1806 7.79798C10.1429 8.08759 10.0055 8.34834 9.79856 8.52287C9.79122 8.52882 9.78372 8.53477 9.77612 8.54073L9.49657 8.74585C9.42889 8.79556 9.34999 8.82195 9.26939 8.82183Z" fill="#F7685F"/>
<path d="M5.77444 3.85797C5.66691 3.85786 5.56353 3.81084 5.48566 3.72662C5.40778 3.64241 5.36136 3.52743 5.35598 3.40544L5.33502 2.92761C5.32446 2.69025 5.39532 2.45748 5.5327 2.27823C5.67008 2.09898 5.86328 1.98721 6.0717 1.9664L6.05598 1.60676C6.05259 1.54388 6.06022 1.48086 6.07842 1.42135C6.09662 1.36184 6.12503 1.30702 6.16201 1.26007C6.19898 1.21311 6.24379 1.17496 6.29384 1.14781C6.34389 1.12066 6.39818 1.10506 6.45357 1.10191C6.50896 1.09876 6.56436 1.10813 6.61654 1.12946C6.66873 1.15079 6.71667 1.18367 6.75759 1.22619C6.79851 1.26872 6.8316 1.32004 6.85494 1.37719C6.87828 1.43434 6.89141 1.49618 6.89357 1.55913L6.91103 1.95211C6.92149 2.18951 6.85055 2.42227 6.71309 2.60148C6.57563 2.78069 6.38237 2.8924 6.17392 2.91314L6.19363 3.35745C6.1964 3.41992 6.1883 3.48241 6.16981 3.54133C6.15132 3.60026 6.12279 3.65447 6.08586 3.70087C6.04893 3.74727 6.00431 3.78495 5.95455 3.81176C5.9048 3.83857 5.85088 3.85399 5.79588 3.85713C5.78874 3.85774 5.78159 3.85802 5.77444 3.85797Z" fill="#65D1DF"/>
<path d="M2.21996 7.56229C2.21251 7.56229 2.20512 7.56229 2.19773 7.56164L1.74777 7.53455C1.63671 7.52787 1.53253 7.47134 1.45815 7.37741C1.38377 7.28348 1.34529 7.15983 1.35117 7.03367C1.35705 6.90751 1.40681 6.78917 1.48951 6.70468C1.5722 6.6202 1.68105 6.57649 1.79212 6.58317L2.22572 6.60931C2.31087 6.60481 2.39116 6.56295 2.44968 6.49254C2.5082 6.42214 2.54038 6.32869 2.53945 6.23186C2.53614 5.88037 2.65567 5.54174 2.87183 5.2902C3.08798 5.03866 3.38312 4.89474 3.69254 4.89L4.01361 4.88566C4.06868 4.88491 4.12334 4.89649 4.17446 4.91974C4.22559 4.94299 4.27219 4.97745 4.3116 5.02115C4.351 5.06486 4.38244 5.11695 4.40412 5.17446C4.4258 5.23196 4.4373 5.29376 4.43796 5.35631C4.43862 5.41887 4.42842 5.48096 4.40795 5.53904C4.38749 5.59711 4.35715 5.65004 4.31868 5.69481C4.2802 5.73957 4.23434 5.77528 4.18372 5.79991C4.13309 5.82454 4.07869 5.8376 4.02362 5.83834L3.70266 5.84269C3.61556 5.84404 3.53247 5.88457 3.47163 5.95539C3.41079 6.02621 3.37715 6.12154 3.37809 6.22049C3.38147 6.57202 3.26196 6.91073 3.04576 7.16228C2.82956 7.41384 2.53434 7.55769 2.22488 7.56229H2.21996ZM8.67292 4.63706C8.56975 4.63729 8.47013 4.59431 8.39311 4.51633C8.31609 4.43836 8.26707 4.33088 8.25544 4.21443C8.2438 4.09799 8.27037 3.98076 8.33005 3.88516C8.38973 3.78957 8.47834 3.72232 8.57893 3.69628L9.05819 3.57065C9.07522 3.56618 9.09129 3.55795 9.10551 3.54643C9.11973 3.5349 9.13181 3.5203 9.14106 3.50347C9.15031 3.48664 9.15655 3.4679 9.15942 3.44832C9.16229 3.42875 9.16174 3.40873 9.15779 3.3894C9.10016 3.10411 9.14451 2.80451 9.2811 2.55632C9.4177 2.30812 9.63538 2.13162 9.8864 2.06552L10.4688 1.91285C10.5225 1.89877 10.5781 1.89684 10.6324 1.90716C10.6867 1.91749 10.7387 1.93986 10.7854 1.97301C10.8321 2.00615 10.8726 2.04942 10.9046 2.10035C10.9366 2.15128 10.9594 2.20886 10.9718 2.26981C10.9842 2.33076 10.9859 2.39389 10.9768 2.45559C10.9677 2.51728 10.948 2.57634 10.9188 2.6294C10.8896 2.68245 10.8515 2.72845 10.8067 2.76478C10.7619 2.80111 10.7112 2.82705 10.6575 2.84113L10.0748 2.99397C10.0404 3.00306 10.0107 3.02725 9.992 3.06124C9.97333 3.09523 9.96729 3.13624 9.9752 3.17528C10.0039 3.31655 10.0078 3.46285 9.98672 3.60584C9.96563 3.74883 9.91995 3.88569 9.85229 4.00863C9.78463 4.13156 9.69632 4.23814 9.59239 4.3223C9.48846 4.40646 9.37096 4.46653 9.24659 4.4991L8.76738 4.62474C8.7364 4.63289 8.70471 4.63703 8.67292 4.63706Z" fill="#F9B534"/>
<path d="M6.42093 7.51308C6.34491 7.513 6.27034 7.48946 6.2052 7.44496C6.14005 7.40046 6.08678 7.33668 6.05108 7.26045C6.01538 7.18422 5.99859 7.09839 6.00251 7.01216C6.00643 6.92592 6.03092 6.84252 6.07334 6.77087L6.41186 6.19896C6.47392 6.09412 6.5701 6.02158 6.67925 5.99729C6.7884 5.973 6.90157 5.99896 6.99386 6.06946C7.08616 6.13995 7.15002 6.24921 7.1714 6.37319C7.19279 6.49717 7.16993 6.62572 7.10787 6.73056L6.7693 7.30218C6.73096 7.36714 6.67911 7.42036 6.61835 7.45715C6.55759 7.49393 6.48978 7.51314 6.42093 7.51308Z" fill="#64A053"/>
<path d="M10.1571 15.2915L7.12889 19.2332L6.35105 19.4216H5.06496L4.28713 19.2332L0.444283 14.2311L0.20059 14.5169C0.088222 14.6487 0.0186338 14.82 0.00324203 15.0027C-0.0121497 15.1853 0.0275691 15.3685 0.115882 15.5222L3.31477 21.0881C3.6069 21.6336 3.76142 22.2598 3.76142 22.8982V24.9459H7.65464V22.8982C7.65467 22.2598 7.8092 21.6336 8.10135 21.0881L10.9887 16.0642L10.1571 15.2915Z" fill="#FCD3C4"/>
<path d="M3.76172 24.832H7.65494V30.0639H3.76172V24.832Z" fill="#4E6078"/>
<path d="M5.71042 26.4019C5.66754 26.4019 5.62642 26.4212 5.5961 26.4557C5.56577 26.4901 5.54873 26.5368 5.54871 26.5855V30.0638H5.87213V26.5855C5.87212 26.5368 5.85508 26.4901 5.82475 26.4557C5.79443 26.4212 5.7533 26.4019 5.71042 26.4019ZM3.76172 24.9459H7.65494V25.3012H3.76172V24.9459Z" fill="#47576D"/>
<path d="M7.12829 19.2331L6.35045 19.4215H5.06437L4.28653 19.2331L1.25838 15.2914L0.426758 16.0643L3.31417 21.0883C3.60634 21.6337 3.76087 22.2599 3.76088 22.8984V24.9461H7.65405V22.8984C7.65406 22.2599 7.80859 21.6337 8.10076 21.0883L10.9881 16.0643L10.1566 15.2915L7.12829 19.2331Z" fill="#F7685F"/>
<path d="M5.70169 18.7185C5.58858 18.7185 5.37345 18.6181 5.18118 18.4264C5.12715 18.3727 5.07761 18.3135 5.0332 18.2495V19.5868C5.0332 19.5868 5.15377 20.2243 5.73409 20.2243C6.31441 20.2243 6.37485 19.5868 6.37485 19.5868V18.2446C6.18337 18.52 5.87436 18.7185 5.70169 18.7185Z" fill="#FCD3C4"/>
<path d="M5.7039 19.3038C6.08388 19.1472 6.31599 18.9659 6.37485 18.8204V18.2446C6.18337 18.52 5.87436 18.7185 5.7017 18.7185C5.58858 18.7185 5.37345 18.6181 5.18118 18.4264C5.12715 18.3727 5.07761 18.3135 5.0332 18.2495V19.5868C5.06902 19.7437 5.14022 19.8872 5.23978 20.0032C5.23989 19.6691 5.37162 19.4407 5.7039 19.3038Z" fill="#FFC7B5"/>
<path d="M6.36231 16.2845C6.16485 16.4435 6.06488 16.5083 5.86873 16.5083C5.80759 16.5077 5.74656 16.5023 5.68606 16.4923C5.49826 16.4647 5.31731 16.3943 5.15406 16.2854L4.85963 16.0598L4.73781 16.4387C4.69718 16.5437 4.64693 16.6435 4.58789 16.7365V17.7686C4.58789 18.4674 5.31027 19.0339 5.70183 19.0339C6.0934 19.0339 6.82039 18.4674 6.82039 17.7686V16.3217C6.78778 16.2849 6.7491 16.2557 6.70657 16.2359C6.66403 16.2161 6.61848 16.206 6.5725 16.2062C6.49697 16.2068 6.42348 16.2341 6.36231 16.2845Z" fill="#FCD3C4"/>
<path d="M7.13794 14.8418C7.13794 14.8418 6.916 15.1395 6.65292 15.08C6.3221 15.0051 6.0739 14.7905 5.42145 14.7905C4.93742 14.7905 4.21724 14.9203 4.05753 15.7629C3.88507 16.6723 4.58753 17.1946 4.58753 17.1946C4.64922 17.1475 4.7035 17.089 4.74809 17.0214C4.85037 16.877 4.9346 16.7172 4.99838 16.5466C5.19668 16.6828 5.41777 16.7707 5.64758 16.8045C6.08103 16.8728 6.26329 16.7504 6.52266 16.5415C6.71755 16.3846 6.82003 17.1946 6.82003 17.1946C6.82003 17.1946 7.18559 16.8373 7.29672 16.5603C7.71213 15.526 7.13794 14.8418 7.13794 14.8418Z" fill="#56585E"/>
<path d="M15.8423 15.2915L18.8706 19.2332L19.6484 19.4216H20.9346L21.7124 19.2332L25.5553 14.2311L25.799 14.5169C25.9113 14.6487 25.9809 14.82 25.9963 15.0027C26.0117 15.1853 25.972 15.3685 25.8837 15.5222L22.6848 21.0881C22.3927 21.6336 22.2381 22.2598 22.2381 22.8982V24.9459H18.3448V22.8982C18.3448 22.2598 18.1903 21.6336 17.8981 21.0881L15.0107 16.0642L15.8423 15.2915Z" fill="#FCD3C4"/>
<path d="M18.3457 24.8319H22.2389V30.0638H18.3457V24.8319Z" fill="#4E6078"/>
<path d="M20.2944 26.4019C20.2515 26.4019 20.2104 26.4212 20.1801 26.4557C20.1498 26.4901 20.1327 26.5368 20.1327 26.5855V30.0638H20.4561V26.5855C20.4561 26.5368 20.4391 26.4901 20.4087 26.4557C20.3784 26.4212 20.3373 26.4019 20.2944 26.4019ZM18.3457 24.9459H22.2389V25.3012H18.3457V24.9459Z" fill="#47576D"/>
<path d="M21.7122 19.2331L20.9344 19.4215H19.6482L18.8705 19.2331L15.8423 15.2914L15.0107 16.0641L17.8981 21.0881C18.1903 21.6336 18.3448 22.2598 18.3448 22.8982V24.9459H22.238V22.8982C22.238 22.2598 22.3925 21.6336 22.6847 21.0881L25.5721 16.0641L24.7405 15.2914L21.7122 19.2331Z" fill="#F9B534"/>
<path d="M20.2857 18.7185C20.1726 18.7185 19.9574 18.6181 19.7652 18.4264C19.7111 18.3727 19.6616 18.3135 19.6172 18.2495V19.5868C19.6172 19.5868 19.7377 20.2243 20.3181 20.2243C20.8984 20.2243 20.9588 19.5868 20.9588 19.5868V18.2446C20.7674 18.52 20.4583 18.7185 20.2857 18.7185Z" fill="#FCD3C4"/>
<path d="M20.2879 19.3038C20.6679 19.1472 20.9 18.9659 20.9588 18.8204V18.2446C20.7674 18.52 20.4583 18.7185 20.2857 18.7185C20.1726 18.7185 19.9574 18.6181 19.7652 18.4264C19.7111 18.3727 19.6616 18.3135 19.6172 18.2495V19.5868C19.653 19.7437 19.7242 19.8872 19.8238 20.0032C19.8239 19.6691 19.9557 19.4407 20.2879 19.3038Z" fill="#FFC7B5"/>
<path d="M20.9453 16.2845C20.7479 16.4435 20.6479 16.5083 20.4517 16.5083C20.3906 16.5077 20.3296 16.5023 20.2691 16.4923C20.0813 16.4647 19.9003 16.3943 19.7371 16.2854L19.4426 16.0598L19.3208 16.4387C19.2802 16.5437 19.2299 16.6435 19.1709 16.7365V17.7686C19.1709 18.4674 19.8933 19.0339 20.2848 19.0339C20.6764 19.0339 21.4034 18.4674 21.4034 17.7686V16.3217C21.3708 16.2849 21.3321 16.2557 21.2896 16.2359C21.247 16.2161 21.2015 16.206 21.1555 16.2062C21.08 16.2068 21.0065 16.2341 20.9453 16.2845Z" fill="#FCD3C4"/>
<path d="M21.7219 14.8418C21.7219 14.8418 21.5 15.1395 21.2369 15.08C20.9061 15.0051 20.6579 14.7905 20.0054 14.7905C19.5214 14.7905 18.8012 14.9203 18.6415 15.7629C18.4691 16.6723 19.1715 17.1946 19.1715 17.1946C19.2332 17.1475 19.2875 17.089 19.3321 17.0214C19.4344 16.877 19.5186 16.7172 19.5824 16.5466C19.7807 16.6828 20.0018 16.7707 20.2316 16.8045C20.665 16.8728 20.8473 16.7504 21.1066 16.5415C21.3015 16.3846 21.404 17.1946 21.404 17.1946C21.404 17.1946 21.7696 16.8373 21.8807 16.5603C22.296 15.526 21.7219 14.8418 21.7219 14.8418Z" fill="#56585E"/>
<path d="M10.541 23.2795H15.5894V30.0638H10.541V23.2795Z" fill="#4E6078"/>
<path d="M16.1686 18.4251L20.3167 11.2076C20.4312 11.0083 20.4826 10.7708 20.4626 10.5339C20.4426 10.2971 20.3523 10.075 20.2066 9.90404L19.8906 9.53326L14.9078 16.0196L13.8992 16.2637H12.2312L11.2226 16.0196L6.23946 9.5332L5.92332 9.90398C5.77758 10.0749 5.68731 10.297 5.66731 10.5339C5.64731 10.7707 5.69877 11.0083 5.81324 11.2076L9.96132 18.4251C10.3401 19.1323 10.5405 19.9443 10.5405 20.7722V23.4274H15.5893V20.7722C15.5893 19.9443 15.7897 19.1323 16.1686 18.4251Z" fill="#FCD3C4"/>
<path d="M13.0681 25.3154C13.0124 25.3154 12.9591 25.3405 12.9198 25.3851C12.8805 25.4298 12.8584 25.4904 12.8584 25.5535V30.0639H13.2777V25.5535C13.2777 25.4904 13.2556 25.4298 13.2163 25.3851C13.177 25.3405 13.1237 25.3154 13.0681 25.3154ZM10.541 23.4274H15.5894V23.888H10.541V23.4274Z" fill="#47576D"/>
<path d="M14.9081 16.0195L13.8994 16.2636H12.2314L11.2228 16.0195L7.29612 10.9083L6.21777 11.9101L9.96191 18.4248C10.3407 19.1321 10.5411 19.944 10.5411 20.7719V23.4271H15.5895V20.7721C15.5895 19.9442 15.7899 19.1323 16.1687 18.425L19.913 11.9101L18.8346 10.9081L14.9081 16.0195Z" fill="#65D1DF"/>
<path d="M13.0573 15.3521C12.9106 15.3521 12.6317 15.2219 12.3824 14.9732C12.3123 14.9036 12.2481 14.8268 12.1904 14.7438V16.4781C12.1904 16.4781 12.3468 17.3048 13.0993 17.3048C13.8517 17.3048 13.9301 16.4781 13.9301 16.4781V14.7377C13.682 15.0947 13.2814 15.3521 13.0573 15.3521Z" fill="#FCD3C4"/>
<path d="M13.061 16.111C13.5538 15.908 13.8547 15.6729 13.9312 15.4841V14.7375C13.6829 15.0948 13.2822 15.352 13.0583 15.352C12.9115 15.352 12.6327 15.2219 12.3834 14.9732C12.3133 14.9036 12.249 14.8268 12.1914 14.7437V16.478C12.2379 16.6813 12.3302 16.8674 12.4593 17.0179C12.4594 16.5848 12.6301 16.2886 13.061 16.111Z" fill="#FFC7B5"/>
<path d="M13.9142 12.1959C13.6582 12.4022 13.5285 12.4862 13.2742 12.4862C13.1949 12.4854 13.1158 12.4784 13.0373 12.4654C12.7938 12.4297 12.5592 12.3384 12.3475 12.1971L11.9656 11.9047L11.8077 12.396C11.755 12.5321 11.6899 12.6615 11.6133 12.7821V14.1204C11.6133 15.0266 12.55 15.7612 13.0578 15.7612C13.5655 15.7612 14.5082 15.0266 14.5082 14.1204V12.2441C14.466 12.1964 14.4158 12.1585 14.3606 12.1328C14.3055 12.1071 14.2464 12.094 14.1868 12.0942C14.0888 12.0951 13.9935 12.1306 13.9142 12.1959Z" fill="#FCD3C4"/>
<path d="M14.9205 10.3252C14.9205 10.3252 14.6327 10.7116 14.2915 10.6344C13.8625 10.5373 13.5406 10.2593 12.6946 10.2593C12.067 10.2593 11.1331 10.4275 10.926 11.5202C10.7023 12.6991 11.6132 13.3767 11.6132 13.3767C11.6932 13.3156 11.7636 13.2397 11.8214 13.1521C11.9541 12.9649 12.0633 12.7577 12.146 12.5364C12.4031 12.7131 12.6898 12.827 12.9878 12.8709C13.5499 12.9594 13.7862 12.8007 14.1225 12.5298C14.3752 12.3263 14.5082 13.3767 14.5082 13.3767C14.5082 13.3767 14.9822 12.9131 15.1263 12.5542C15.6651 11.2124 14.9205 10.3252 14.9205 10.3252Z" fill="#56585E"/>
</svg>
