<svg width="24" height="28" viewBox="0 0 24 28" fill="none" xmlns="http://www.w3.org/2000/svg">
<mask id="mask0_257_19318" style="mask-type:luminance" maskUnits="userSpaceOnUse" x="0" y="0" width="24" height="28">
<path d="M0 0.0638428H24V27.0638H0V0.0638428Z" fill="white"/>
</mask>
<g mask="url(#mask0_257_19318)">
<path d="M22.3295 9.73464L21.7527 8.37762C21.7125 8.283 21.6405 8.21022 21.5526 8.17529C21.4646 8.14036 21.368 8.14614 21.2839 8.19137C21.1998 8.23664 21.1351 8.31763 21.104 8.41654C21.073 8.51545 21.0782 8.62418 21.1184 8.71882L21.6951 10.0759C21.715 10.1227 21.7429 10.1647 21.7773 10.1994C21.8116 10.2342 21.8517 10.2609 21.8952 10.2782C21.9388 10.2955 21.9849 10.303 22.031 10.3002C22.0771 10.2975 22.1223 10.2845 22.1639 10.2621C22.2056 10.2397 22.2429 10.2083 22.2738 10.1696C22.3046 10.131 22.3284 10.0859 22.3438 10.0369C22.3592 9.98795 22.3658 9.93604 22.3634 9.88418C22.3609 9.83231 22.3494 9.7815 22.3295 9.73464Z" fill="#54C9EB"/>
<path d="M13.57 9.68408L12.4137 8.93172C12.3331 8.88105 12.238 8.86809 12.149 8.89565C12.0599 8.92321 11.9841 8.98907 11.9379 9.079C11.8916 9.16893 11.8787 9.27572 11.9019 9.37629C11.925 9.47685 11.9825 9.56313 12.0617 9.61647L13.218 10.3688C13.258 10.3948 13.3021 10.4117 13.3479 10.4186C13.3936 10.4254 13.4402 10.422 13.4848 10.4086C13.5294 10.3952 13.5712 10.372 13.6078 10.3404C13.6445 10.3088 13.6752 10.2694 13.6983 10.2244C13.7215 10.1795 13.7365 10.1299 13.7426 10.0784C13.7486 10.0269 13.7456 9.97454 13.7337 9.92436C13.7218 9.87418 13.7012 9.82713 13.6731 9.7859C13.645 9.74467 13.61 9.71007 13.57 9.68408Z" fill="#FFE26F"/>
<path d="M2.49107 8.10263C2.45212 8.07474 2.40866 8.05575 2.36318 8.04676C2.31771 8.03777 2.2711 8.03894 2.22603 8.05022C2.18096 8.0615 2.1383 8.08266 2.1005 8.11249C2.0627 8.14232 2.0305 8.18024 2.00573 8.22408L1.28835 9.49302C1.26356 9.53685 1.24669 9.58573 1.2387 9.63689C1.23071 9.68805 1.23176 9.74048 1.24178 9.79119C1.25181 9.84189 1.27061 9.88988 1.29713 9.9324C1.32364 9.97493 1.35734 10.0112 1.3963 10.039C1.43524 10.067 1.4787 10.086 1.52417 10.095C1.56965 10.104 1.61626 10.1028 1.66134 10.0915C1.70641 10.0802 1.74907 10.0591 1.78686 10.0292C1.82466 9.99938 1.85685 9.96145 1.8816 9.91759L2.59902 8.64864C2.6238 8.60481 2.64067 8.55593 2.64866 8.50477C2.65664 8.45361 2.65559 8.40118 2.64557 8.35048C2.63554 8.29978 2.61674 8.25179 2.59023 8.20927C2.56372 8.16674 2.53003 8.1305 2.49107 8.10263Z" fill="#54C9EB"/>
<path d="M22.2859 15.9302V22.3212H18.3887L18.8574 15.9302C18.8574 15.0475 19.3839 14.3029 20.1025 14.0729C20.1029 14.0724 20.1034 14.0729 20.1034 14.0729C20.252 14.0249 20.4095 13.9996 20.5717 13.9996C21.5186 13.9996 22.2859 14.8639 22.2859 15.9302Z" fill="#997AB8"/>
<path d="M22.2851 15.9303V22.3213H20.9702C21.0198 22.3213 21.0688 22.3104 21.1146 22.2891C21.1604 22.2678 21.202 22.2365 21.2371 22.1971C21.2722 22.1576 21.2999 22.1108 21.3189 22.0593C21.3379 22.0078 21.3476 21.9526 21.3476 21.8968V15.9303C21.3476 15.0476 20.8212 14.303 20.1025 14.073C20.2511 14.025 20.4087 13.9998 20.5709 13.9998C21.5177 13.9998 22.2851 14.864 22.2851 15.9303Z" fill="#6957A1"/>
<path d="M21.9333 12.8732C21.9333 13.7186 21.3221 14.4067 20.5711 14.4067C20.4066 14.4067 20.2487 14.3735 20.1024 14.3129C19.5816 14.0977 19.209 13.5335 19.209 12.8732C19.209 12.213 19.5816 11.6487 20.1024 11.433C20.2525 11.3708 20.4112 11.3391 20.5711 11.3392C21.3221 11.3392 21.9333 12.0274 21.9333 12.8732Z" fill="#FFD6A9"/>
<path d="M21.9335 12.8732C21.9335 13.7186 21.3222 14.4067 20.5713 14.4067C20.4068 14.4067 20.2488 14.3735 20.1025 14.3129C20.6234 14.0977 20.996 13.5335 20.996 12.8732C20.996 12.213 20.6234 11.6487 20.1025 11.433C20.2526 11.3708 20.4113 11.3391 20.5713 11.3392C21.3222 11.3392 21.9335 12.0274 21.9335 12.8732Z" fill="#F7BE97"/>
<path d="M18.8571 15.9302V22.3212H14.96L15.4287 15.9302C15.4287 15.0475 15.9552 14.3029 16.6737 14.0729C16.6742 14.0724 16.6746 14.0729 16.6746 14.0729C16.8232 14.0249 16.9808 13.9996 17.143 13.9996C18.0898 13.9996 18.8571 14.8639 18.8571 15.9302Z" fill="#A6DFF5"/>
<path d="M18.8563 15.9303V22.3213H17.5415C17.7501 22.3213 17.9188 22.1315 17.9188 21.8968V15.9303C17.9188 15.0476 17.3925 14.303 16.6738 14.073C16.8224 14.025 16.98 13.9998 17.1422 13.9998C18.089 13.9998 18.8563 14.864 18.8563 15.9303Z" fill="#54C9EB"/>
<path d="M18.5046 12.8732C18.5046 13.7186 17.8934 14.4067 17.1425 14.4067C16.9779 14.4067 16.82 14.3735 16.6737 14.3129C16.1529 14.0977 15.7803 13.5335 15.7803 12.8732C15.7803 12.213 16.1529 11.6487 16.6737 11.433C16.8238 11.3708 16.9825 11.3391 17.1425 11.3392C17.8934 11.3392 18.5046 12.0274 18.5046 12.8732Z" fill="#FFD6A9"/>
<path d="M18.5048 12.8732C18.5048 13.7186 17.8935 14.4067 17.1426 14.4067C16.978 14.4067 16.8201 14.3735 16.6738 14.3129C17.1946 14.0977 17.5673 13.5335 17.5673 12.8732C17.5673 12.213 17.1946 11.6487 16.6738 11.433C16.8239 11.3708 16.9826 11.3391 17.1426 11.3392C17.8935 11.3392 18.5048 12.0274 18.5048 12.8732Z" fill="#F7BE97"/>
<path d="M15.4284 15.9302V22.3212H11.5312L12 15.9302C12 15.0475 12.5264 14.3029 13.245 14.0729C13.2455 14.0724 13.2459 14.0729 13.2459 14.0729C13.3945 14.0249 13.552 13.9996 13.7142 13.9996C14.6611 13.9996 15.4284 14.8639 15.4284 15.9302Z" fill="#C8D9E2"/>
<path d="M15.4286 15.9302V22.3212H14.1138C14.3223 22.3212 14.4911 22.1314 14.4911 21.8967V15.9302C14.4911 15.0475 13.9647 14.3029 13.2461 14.0729C13.3947 14.0249 13.5522 13.9996 13.7144 13.9996C14.6612 13.9996 15.4286 14.8639 15.4286 15.9302Z" fill="#A1ADB4"/>
<path d="M15.0769 12.8732C15.0769 13.7186 14.4657 14.4067 13.7147 14.4067C13.5502 14.4067 13.3922 14.3735 13.2459 14.3129C12.7252 14.0977 12.3525 13.5335 12.3525 12.8732C12.3525 12.213 12.7252 11.6487 13.2459 11.433C13.396 11.3708 13.5547 11.3391 13.7147 11.3392C14.4657 11.3392 15.0769 12.0274 15.0769 12.8732Z" fill="#FFD6A9"/>
<path d="M15.0761 12.8732C15.0761 13.7186 14.4649 14.4067 13.7139 14.4067C13.5494 14.4067 13.3914 14.3735 13.2451 14.3129C13.7659 14.0977 14.1386 13.5335 14.1386 12.8732C14.1386 12.213 13.7659 11.6487 13.2451 11.433C13.3952 11.3708 13.5539 11.3391 13.7139 11.3392C14.4649 11.3392 15.0761 12.0274 15.0761 12.8732Z" fill="#F7BE97"/>
<path d="M11.9998 15.9303V22.3213H8.10254L8.57129 15.9303C8.57129 15.0476 9.09774 14.303 9.81634 14.073C9.8168 14.0725 9.81723 14.073 9.81723 14.073C9.96582 14.025 10.1234 13.9998 10.2856 13.9998C11.2324 13.9998 11.9998 14.864 11.9998 15.9303Z" fill="#FFE26F"/>
<path d="M11.9999 15.9302V22.3212H10.6851C10.7346 22.3212 10.7837 22.3102 10.8295 22.2889C10.8753 22.2676 10.9169 22.2363 10.952 22.1969C10.987 22.1575 11.0148 22.1107 11.0338 22.0592C11.0527 22.0077 11.0625 21.9525 11.0624 21.8967V15.9302C11.0624 15.0475 10.536 14.3029 9.81738 14.0729C9.96598 14.0249 10.1235 13.9996 10.2857 13.9996C11.2326 13.9996 11.9999 14.8639 11.9999 15.9302Z" fill="#FFBA4C"/>
<path d="M11.6482 12.8732C11.6482 13.7186 11.037 14.4067 10.286 14.4067C10.1215 14.4067 9.96352 14.3735 9.81722 14.3129C9.29648 14.0977 8.92383 13.5335 8.92383 12.8732C8.92383 12.213 9.29648 11.6487 9.81722 11.433C9.96731 11.3708 10.126 11.3391 10.286 11.3392C11.037 11.3392 11.6482 12.0274 11.6482 12.8732Z" fill="#FFD6A9"/>
<path d="M11.6484 12.8732C11.6484 13.7186 11.0371 14.4067 10.2861 14.4067C10.1216 14.4067 9.96368 14.3735 9.81738 14.3129C10.3382 14.0977 10.7109 13.5335 10.7109 12.8732C10.7109 12.213 10.3382 11.6487 9.81738 11.433C9.96747 11.3708 10.1262 11.3391 10.2861 11.3392C11.0371 11.3392 11.6484 12.0274 11.6484 12.8732Z" fill="#F7BE97"/>
<path d="M8.57106 15.9302V22.3212H4.67383L5.14258 15.9302C5.14258 15.0475 5.66903 14.3029 6.38762 14.0729C6.38809 14.0724 6.38852 14.0729 6.38852 14.0729C6.53711 14.0249 6.69466 13.9996 6.85684 13.9996C7.80372 13.9996 8.57106 14.8639 8.57106 15.9302Z" fill="#F77A49"/>
<path d="M8.57122 15.9302V22.3212H7.25633C7.30589 22.3212 7.35497 22.3103 7.40077 22.2889C7.44657 22.2676 7.48818 22.2364 7.52323 22.1969C7.55828 22.1575 7.58608 22.1107 7.60504 22.0592C7.624 22.0077 7.63374 21.9525 7.63372 21.8967V15.9302C7.63372 15.0475 7.10731 14.3029 6.38867 14.0729C6.53727 14.0249 6.69481 13.9996 6.857 13.9996C7.80388 13.9996 8.57122 14.8639 8.57122 15.9302Z" fill="#DE4F42"/>
<path d="M8.21847 12.8732C8.21847 13.7186 7.60722 14.4067 6.85628 14.4067C6.6918 14.4067 6.53383 14.3735 6.38753 14.3129C5.86675 14.0977 5.49414 13.5335 5.49414 12.8732C5.49414 12.213 5.86675 11.6487 6.38753 11.433C6.53762 11.3708 6.69633 11.3391 6.85628 11.3392C7.60722 11.3392 8.21847 12.0274 8.21847 12.8732Z" fill="#FFD6A9"/>
<path d="M8.21961 12.8732C8.21961 13.7186 7.60836 14.4067 6.85742 14.4067C6.69294 14.4067 6.53497 14.3735 6.38867 14.3129C6.9095 14.0977 7.28211 13.5335 7.28211 12.8732C7.28211 12.213 6.9095 11.6487 6.38867 11.433C6.53876 11.3708 6.69747 11.3391 6.85742 11.3392C7.60836 11.3392 8.21961 12.0274 8.21961 12.8732Z" fill="#F7BE97"/>
<path d="M5.14328 15.9304V22.3214H1.71484V15.9304C1.71484 15.0477 2.24125 14.303 2.95984 14.0731C2.96031 14.0726 2.96078 14.0731 2.96078 14.0731C3.10937 14.0251 3.26687 13.9998 3.42906 13.9998C4.37594 13.9998 5.14328 14.8641 5.14328 15.9304Z" fill="#5BC196"/>
<path d="M5.14344 15.9304V22.3214H3.82859C4.03719 22.3214 4.20594 22.1316 4.20594 21.8969V15.9304C4.20594 15.0477 3.67958 14.303 2.96094 14.0731C3.10953 14.0251 3.26703 13.9998 3.42922 13.9998C4.37609 13.9998 5.14344 14.8641 5.14344 15.9304Z" fill="#25A077"/>
<path d="M4.79078 12.8735C4.79078 13.7187 4.17953 14.407 3.42855 14.407C3.26406 14.407 3.10609 14.3738 2.9598 14.3131C2.43906 14.098 2.06641 13.5337 2.06641 12.8735C2.06641 12.2132 2.43906 11.6489 2.9598 11.4332C3.1099 11.3711 3.2686 11.3393 3.42855 11.3394C4.17953 11.3394 4.79078 12.0276 4.79078 12.8735Z" fill="#FFD6A9"/>
<path d="M4.79095 12.8735C4.79095 13.7187 4.1797 14.407 3.42871 14.407C3.26423 14.407 3.10626 14.3738 2.95996 14.3131C3.48079 14.098 3.85345 13.5337 3.85345 12.8735C3.85345 12.2132 3.48079 11.6489 2.95996 11.4332C3.11006 11.3711 3.26876 11.3393 3.42871 11.3394C4.1797 11.3394 4.79095 12.0276 4.79095 12.8735Z" fill="#F7BE97"/>
<path d="M23.9998 22.3214V27.0638H20.1025L20.5713 22.3214C20.5713 21.4387 21.0977 20.6941 21.8163 20.4641C21.8168 20.4636 21.8172 20.4641 21.8172 20.4641C21.9658 20.4161 22.1234 20.3908 22.2856 20.3908C23.2324 20.3908 23.9998 21.2551 23.9998 22.3214Z" fill="#F77A49"/>
<path d="M23.9999 22.3214V27.0638H22.6851C22.8937 27.0638 23.0624 26.874 23.0624 26.6393V22.3214C23.0624 21.4387 22.536 20.6941 21.8174 20.4641C21.966 20.4161 22.1235 20.3908 22.2857 20.3908C23.2326 20.3908 23.9999 21.2551 23.9999 22.3214Z" fill="#DE4F42"/>
<path d="M23.6482 19.2645C23.6482 20.1098 23.037 20.798 22.286 20.798C22.1215 20.798 21.9635 20.7648 21.8172 20.7042C21.2965 20.489 20.9238 19.9247 20.9238 19.2645C20.9238 18.6042 21.2965 18.04 21.8172 17.8243C21.9673 17.7621 22.126 17.7303 22.286 17.7304C23.037 17.7304 23.6482 18.4187 23.6482 19.2645Z" fill="#FFD6A9"/>
<path d="M23.6474 19.2645C23.6474 20.1098 23.0361 20.798 22.2852 20.798C22.1207 20.798 21.9627 20.7648 21.8164 20.7042C22.3372 20.489 22.7099 19.9247 22.7099 19.2645C22.7099 18.6042 22.3372 18.04 21.8164 17.8243C21.9665 17.7621 22.1252 17.7303 22.2852 17.7304C23.0361 17.7304 23.6474 18.4187 23.6474 19.2645Z" fill="#F7BE97"/>
<path d="M20.571 22.3214V27.0638H16.6738L17.1426 22.3214C17.1426 21.4387 17.669 20.6941 18.3876 20.4641C18.3881 20.4636 18.3885 20.4641 18.3885 20.4641C18.5371 20.4161 18.6947 20.3908 18.8568 20.3908C19.8037 20.3908 20.571 21.2551 20.571 22.3214Z" fill="#5BC196"/>
<path d="M20.5712 22.3214V27.0638H19.2563C19.4649 27.0638 19.6337 26.874 19.6337 26.6393V22.3214C19.6337 21.4387 19.1073 20.6941 18.3887 20.4641C18.5373 20.4161 18.6948 20.3908 18.857 20.3908C19.8039 20.3908 20.5712 21.2551 20.5712 22.3214Z" fill="#25A077"/>
<path d="M20.2194 19.2645C20.2194 20.1098 19.6082 20.798 18.8573 20.798C18.6927 20.798 18.5348 20.7648 18.3885 20.7042C17.8677 20.489 17.4951 19.9247 17.4951 19.2645C17.4951 18.6042 17.8677 18.04 18.3885 17.8243C18.5386 17.7621 18.6973 17.7303 18.8573 17.7304C19.6082 17.7304 20.2194 18.4187 20.2194 19.2645Z" fill="#FFD6A9"/>
<path d="M20.2196 19.2645C20.2196 20.1098 19.6084 20.798 18.8574 20.798C18.6929 20.798 18.535 20.7648 18.3887 20.7042C18.9095 20.489 19.2821 19.9247 19.2821 19.2645C19.2821 18.6042 18.9095 18.04 18.3887 17.8243C18.5388 17.7621 18.6975 17.7303 18.8574 17.7304C19.6084 17.7304 20.2196 18.4187 20.2196 19.2645Z" fill="#F7BE97"/>
<path d="M17.1433 22.3214V27.0638H13.2461L13.7148 22.3214C13.7148 21.4387 14.2413 20.6941 14.9598 20.4641C14.9604 20.4636 14.9608 20.4641 14.9608 20.4641C15.1094 20.4161 15.2669 20.3908 15.4291 20.3908C16.3759 20.3908 17.1433 21.2551 17.1433 22.3214Z" fill="#FFE26F"/>
<path d="M17.1425 22.3214V27.0638H15.8276C16.0362 27.0638 16.205 26.874 16.205 26.6393V22.3214C16.205 21.4387 15.6786 20.6941 14.96 20.4641C15.1086 20.4161 15.2661 20.3908 15.4283 20.3908C16.3751 20.3908 17.1425 21.2551 17.1425 22.3214Z" fill="#FFBA4C"/>
<path d="M16.7908 19.2645C16.7908 20.1098 16.1795 20.798 15.4286 20.798C15.2641 20.798 15.1061 20.7648 14.9598 20.7042C14.4391 20.489 14.0664 19.9247 14.0664 19.2645C14.0664 18.6042 14.4391 18.04 14.9598 17.8243C15.1099 17.7621 15.2686 17.7303 15.4286 17.7304C16.1795 17.7304 16.7908 18.4187 16.7908 19.2645Z" fill="#FFD6A9"/>
<path d="M16.7909 19.2645C16.7909 20.1098 16.1796 20.798 15.4287 20.798C15.2642 20.798 15.1063 20.7648 14.96 20.7042C15.4807 20.489 15.8534 19.9247 15.8534 19.2645C15.8534 18.6042 15.4807 18.04 14.96 17.8243C15.1101 17.7621 15.2688 17.7303 15.4287 17.7304C16.1796 17.7304 16.7909 18.4187 16.7909 19.2645Z" fill="#F7BE97"/>
<path d="M13.7146 22.3214V27.0638H9.81738L10.2861 22.3214C10.2861 21.4387 10.8126 20.6941 11.5312 20.4641C11.5316 20.4636 11.5321 20.4641 11.5321 20.4641C11.6807 20.4161 11.8382 20.3908 12.0004 20.3908C12.9473 20.3908 13.7146 21.2551 13.7146 22.3214Z" fill="#997AB8"/>
<path d="M13.7148 22.3214V27.0638H12.3999C12.6085 27.0638 12.7773 26.874 12.7773 26.6393V22.3214C12.7773 21.4387 12.2509 20.6941 11.5322 20.4641C11.6808 20.4161 11.8384 20.3908 12.0006 20.3908C12.9474 20.3908 13.7148 21.2551 13.7148 22.3214Z" fill="#6957A1"/>
<path d="M13.3621 19.2645C13.3621 20.1098 12.7508 20.798 11.9998 20.798C11.8354 20.798 11.6774 20.7648 11.5311 20.7042C11.0104 20.489 10.6377 19.9247 10.6377 19.2645C10.6377 18.6042 11.0104 18.04 11.5311 17.8243C11.6812 17.7621 11.8399 17.7303 11.9998 17.7304C12.7508 17.7304 13.3621 18.4187 13.3621 19.2645Z" fill="#FFD6A9"/>
<path d="M13.3622 19.2645C13.3622 20.1098 12.751 20.798 12 20.798C11.8355 20.798 11.6775 20.7648 11.5312 20.7042C12.0521 20.489 12.4247 19.9247 12.4247 19.2645C12.4247 18.6042 12.0521 18.04 11.5312 17.8243C11.6813 17.7621 11.84 17.7303 12 17.7304C12.751 17.7304 13.3622 18.4187 13.3622 19.2645Z" fill="#F7BE97"/>
<path d="M10.2859 22.3214V27.0638H6.38867L6.85742 22.3214C6.85742 21.4387 7.38387 20.6941 8.10242 20.4641C8.10294 20.4636 8.10336 20.4641 8.10336 20.4641C8.25195 20.4161 8.4095 20.3908 8.57169 20.3908C9.51852 20.3908 10.2859 21.2551 10.2859 22.3214Z" fill="#A6DFF5"/>
<path d="M10.286 22.3214V27.0638H8.97117C9.17977 27.0638 9.34852 26.874 9.34852 26.6393V22.3214C9.34852 21.4387 8.82216 20.6941 8.10352 20.4641C8.25211 20.4161 8.40966 20.3908 8.57184 20.3908C9.51867 20.3908 10.286 21.2551 10.286 22.3214Z" fill="#54C9EB"/>
<path d="M9.93434 19.2645C9.93434 20.1098 9.32309 20.798 8.57215 20.798C8.40762 20.798 8.2497 20.7648 8.1034 20.7042C7.58262 20.489 7.20996 19.9247 7.20996 19.2645C7.20996 18.6042 7.58262 18.04 8.1034 17.8243C8.2535 17.7621 8.4122 17.7303 8.57215 17.7304C9.32309 17.7304 9.93434 18.4187 9.93434 19.2645Z" fill="#FFD6A9"/>
<path d="M9.93348 19.2645C9.93348 20.1098 9.32223 20.798 8.57129 20.798C8.40676 20.798 8.24884 20.7648 8.10254 20.7042C8.62332 20.489 8.99598 19.9247 8.99598 19.2645C8.99598 18.6042 8.62332 18.04 8.10254 17.8243C8.25264 17.7621 8.41134 17.7303 8.57129 17.7304C9.32223 17.7304 9.93348 18.4187 9.93348 19.2645Z" fill="#F7BE97"/>
<path d="M6.85817 22.3214V27.0638H2.96094L3.42969 22.3214C3.42969 21.4387 3.95614 20.6941 4.67473 20.4641C4.6752 20.4636 4.67562 20.4641 4.67562 20.4641C4.82422 20.4161 4.98177 20.3908 5.14395 20.3908C6.09083 20.3908 6.85817 21.2551 6.85817 22.3214Z" fill="#C8D9E2"/>
<path d="M6.85735 22.3214V27.0638H5.54251C5.75105 27.0638 5.91985 26.874 5.91985 26.6393V22.3214C5.91985 21.4387 5.39345 20.6941 4.6748 20.4641C4.8234 20.4161 4.98095 20.3908 5.14313 20.3908C6.09001 20.3908 6.85735 21.2551 6.85735 22.3214Z" fill="#A1ADB4"/>
<path d="M6.50562 19.2645C6.50562 20.1098 5.89437 20.798 5.14339 20.798C4.97891 20.798 4.82094 20.7648 4.67464 20.7042C4.15391 20.489 3.78125 19.9247 3.78125 19.2645C3.78125 18.6042 4.15391 18.04 4.67464 17.8243C4.82474 17.7621 4.98344 17.7303 5.14339 17.7304C5.89437 17.7304 6.50562 18.4187 6.50562 19.2645Z" fill="#FFD6A9"/>
<path d="M6.50481 19.2645C6.50481 20.1098 5.89356 20.798 5.14258 20.798C4.97809 20.798 4.82012 20.7648 4.67383 20.7042C5.19466 20.489 5.56731 19.9247 5.56731 19.2645C5.56731 18.6042 5.19466 18.04 4.67383 17.8243C4.82393 17.7621 4.98263 17.7303 5.14258 17.7304C5.89356 17.7304 6.50481 18.4187 6.50481 19.2645Z" fill="#F7BE97"/>
<path d="M1.71427 20.3907C0.767484 20.3907 0 21.2553 0 22.3217V26.6394C0 26.752 0.0397459 26.8599 0.110494 26.9395C0.181242 27.0191 0.277197 27.0638 0.37725 27.0638H3.42853V22.3217C3.42853 21.2553 2.66105 20.3907 1.71427 20.3907Z" fill="#F77A49"/>
<path d="M3.42859 22.3214V27.0638H2.11375C2.32234 27.0638 2.49109 26.874 2.49109 26.6393V22.3214C2.49109 21.4387 1.96473 20.6941 1.24609 20.4641C1.39469 20.4161 1.55223 20.3908 1.71442 20.3908C2.66125 20.3908 3.42859 21.2551 3.42859 22.3214Z" fill="#DE4F42"/>
<path d="M1.71473 17.7303C0.963648 17.7303 0.352539 18.4185 0.352539 19.2643C0.352539 20.11 0.963648 20.7981 1.71473 20.7981C2.4658 20.7981 3.07691 20.11 3.07691 19.2643C3.07691 18.4185 2.4658 17.7303 1.71473 17.7303Z" fill="#FFD6A9"/>
<path d="M3.07703 19.2645C3.07703 20.1098 2.46578 20.798 1.71484 20.798C1.55031 20.798 1.39239 20.7648 1.24609 20.7042C1.76687 20.489 2.13953 19.9247 2.13953 19.2645C2.13953 18.6042 1.76687 18.04 1.24609 17.8243C1.39619 17.7621 1.55489 17.7303 1.71484 17.7304C2.46578 17.7304 3.07703 18.4187 3.07703 19.2645Z" fill="#F7BE97"/>
<path d="M13.957 2.25543V6.58956C13.9571 6.65919 13.9409 6.7276 13.9099 6.7879C13.879 6.84819 13.8344 6.89823 13.7808 6.93297C13.7274 6.96719 13.6669 6.98518 13.6055 6.98517C13.5445 6.98517 13.4831 6.9673 13.4283 6.93138L13.0008 6.65026L12 5.9925L10.5717 6.93138C10.5183 6.96661 10.4576 6.98531 10.3957 6.98559C10.3337 6.98587 10.2729 6.96771 10.2192 6.93297C10.1656 6.89823 10.121 6.84819 10.0901 6.7879C10.0591 6.7276 10.0429 6.65919 10.043 6.58956V2.24488L13.0008 2.25279L13.957 2.25543Z" fill="#F77A49"/>
<path d="M4.42918 1.88156V6.44097C4.42918 6.60972 4.33402 6.76012 4.19199 6.81496C4.1227 6.84183 4.04768 6.84366 3.97742 6.8202C3.90715 6.79674 3.84516 6.74917 3.80012 6.68413L3.47996 6.22154L2.72809 5.13448L1.86516 5.81543C1.81245 5.857 1.7506 5.88148 1.68637 5.88621C1.62214 5.89095 1.55798 5.87575 1.5009 5.84228C1.44382 5.80891 1.39598 5.75856 1.36259 5.69672C1.3292 5.63487 1.31154 5.5639 1.31152 5.49154V1.30454L3.47996 1.7059L4.42918 1.88156Z" fill="#997AB8"/>
<path d="M9.04598 2.32407L7.59051 7.65515C7.5684 7.73603 7.52383 7.80682 7.46334 7.85713C7.40286 7.90744 7.32964 7.93462 7.25441 7.93469H7.25301C7.17754 7.93447 7.10414 7.9069 7.04369 7.85608C6.98324 7.80525 6.93895 7.73387 6.91738 7.65251L5.46191 2.16845L7.55816 2.25968L9.04598 2.32407Z" fill="#FFE26F"/>
<path d="M13.9562 2.25548V6.58962C13.9563 6.65924 13.9401 6.72766 13.9091 6.78795C13.8782 6.84825 13.8336 6.89829 13.78 6.93302C13.7266 6.96724 13.6662 6.98523 13.6047 6.98523C13.5437 6.98523 13.4823 6.96735 13.4275 6.93144L13 6.65031V2.25285L13.9562 2.25548Z" fill="#DE4F42"/>
<path d="M9.04645 2.32407L7.59098 7.65515C7.56887 7.73603 7.5243 7.80682 7.46381 7.85713C7.40333 7.90744 7.3301 7.93462 7.25488 7.93469L7.55863 2.25968L9.04645 2.32407Z" fill="#FFBA4C"/>
<path d="M4.42871 1.88143V6.44085C4.42871 6.6096 4.33355 6.76 4.19152 6.81484C4.12223 6.84171 4.04721 6.84354 3.97695 6.82008C3.90668 6.79662 3.8447 6.74905 3.79965 6.68401L3.47949 6.22142V1.70578L4.42871 1.88143Z" fill="#6957A1"/>
<path d="M22.6889 1.30443V5.49143C22.6889 5.5638 22.6713 5.63477 22.6379 5.69663C22.6045 5.75848 22.5566 5.80884 22.4996 5.84222C22.4425 5.87568 22.3783 5.89087 22.3141 5.88613C22.2499 5.88139 22.1881 5.8569 22.1354 5.81532L21.8222 5.56842L21.2724 5.13436L20.2004 6.68407C20.1553 6.74909 20.0934 6.79666 20.0232 6.82015C19.9529 6.84363 19.8779 6.84186 19.8087 6.81507C19.7394 6.78828 19.6793 6.73782 19.6367 6.67073C19.5941 6.60364 19.5713 6.52328 19.5713 6.44086V1.88145L21.8222 1.46479L22.6889 1.30443Z" fill="#5BC196"/>
<path d="M18.5372 2.16845L17.0817 7.65251C17.0602 7.73387 17.0159 7.80525 16.9554 7.85608C16.895 7.9069 16.8216 7.93447 16.7461 7.93469H16.7447C16.6695 7.93461 16.5962 7.90743 16.5358 7.85712C16.4753 7.80681 16.4307 7.73603 16.4086 7.65515L14.9531 2.32407L17.0198 2.23437L18.5372 2.16845Z" fill="#D0EDF5"/>
<path d="M22.688 1.30441V5.49141C22.688 5.56378 22.6703 5.63476 22.6369 5.69661C22.6035 5.75846 22.5557 5.80882 22.4986 5.8422C22.4416 5.87567 22.3774 5.89086 22.3132 5.88611C22.2489 5.88137 22.1871 5.85688 22.1344 5.81531L21.8213 5.5684V1.46477L22.688 1.30441Z" fill="#25A077"/>
<path d="M18.5376 2.16845L17.0821 7.65251C17.0606 7.73387 17.0163 7.80525 16.9558 7.85608C16.8954 7.9069 16.822 7.93447 16.7465 7.93469H16.7451L17.0203 2.23437L18.5376 2.16845Z" fill="#A6DFF5"/>
<path d="M23.6925 0.0669835C23.6467 0.0604506 23.6002 0.0641353 23.5557 0.0778275C23.5111 0.0915198 23.4694 0.114951 23.4329 0.146782C23.3964 0.178614 23.3659 0.218222 23.343 0.263345C23.3201 0.308466 23.3054 0.358218 23.2996 0.409757C23.2991 0.413976 23.2027 0.84413 21.4406 1.22793C19.5161 1.64706 16.3398 1.85958 12 1.85958C7.66015 1.85958 4.48385 1.64706 2.5593 1.22793C0.797226 0.84413 0.700804 0.413976 0.700335 0.409757C0.675914 0.193019 0.499852 0.0398252 0.30743 0.0669308C0.214913 0.0801263 0.130844 0.134124 0.0737142 0.217046C0.0165841 0.299969 -0.00892912 0.405026 0.00278796 0.509109C0.106147 1.42848 1.46229 2.65076 12 2.65076C22.5376 2.65076 23.8938 1.42848 23.9971 0.509109C24.0029 0.457578 23.9997 0.405264 23.9875 0.355156C23.9753 0.305048 23.9545 0.258126 23.9262 0.21707C23.8979 0.176014 23.8627 0.141629 23.8226 0.115876C23.7825 0.0901244 23.7383 0.0735104 23.6925 0.0669835Z" fill="#98654C"/>
<path d="M5.27637 9.75216C5.27637 9.857 5.31339 9.95755 5.37928 10.0317C5.44518 10.1058 5.53455 10.1475 5.62774 10.1475C5.72093 10.1475 5.81031 10.1058 5.8762 10.0317C5.9421 9.95755 5.97912 9.857 5.97912 9.75216C5.97912 9.64732 5.9421 9.54678 5.8762 9.47265C5.81031 9.39851 5.72093 9.35687 5.62774 9.35687C5.53455 9.35687 5.44518 9.39851 5.37928 9.47265C5.31339 9.54678 5.27637 9.64732 5.27637 9.75216Z" fill="#F77A49"/>
<path d="M17.6064 10.0722C17.6064 10.1241 17.6155 10.1756 17.6332 10.2235C17.6508 10.2715 17.6767 10.3151 17.7093 10.3518C17.742 10.3885 17.7807 10.4176 17.8233 10.4375C17.866 10.4573 17.9117 10.4675 17.9578 10.4675C18.004 10.4675 18.0497 10.4573 18.0923 10.4375C18.1349 10.4176 18.1737 10.3885 18.2063 10.3518C18.2389 10.3151 18.2648 10.2715 18.2825 10.2235C18.3001 10.1756 18.3092 10.1241 18.3092 10.0722C18.3092 10.0203 18.3001 9.96891 18.2825 9.92095C18.2648 9.87299 18.2389 9.82941 18.2063 9.7927C18.1737 9.75599 18.1349 9.72687 18.0923 9.70701C18.0497 9.68715 18.004 9.67693 17.9578 9.67694C17.9117 9.67693 17.866 9.68715 17.8233 9.70701C17.7807 9.72687 17.742 9.75599 17.7093 9.7927C17.6767 9.82941 17.6508 9.87299 17.6332 9.92095C17.6155 9.96891 17.6064 10.0203 17.6064 10.0722Z" fill="#F77A49"/>
</g>
</svg>
