<svg width="26" height="27" viewBox="0 0 26 27" fill="none" xmlns="http://www.w3.org/2000/svg">
<path d="M23.146 26.0639H2.85211C2.32043 26.0639 1.88965 25.6328 1.88965 25.1008V9.57227H24.1086V25.1008C24.1086 25.6328 23.6775 26.0639 23.146 26.0639Z" fill="#FFC73B"/>
<path d="M1.88965 9.57227H24.1086V12.8036H1.88965V9.57227Z" fill="#EFB025"/>
<path d="M26 6.20348V10.2067C26 10.6343 25.6533 10.9807 25.226 10.9807H0.773398C0.346125 10.9807 0 10.6343 0 10.2067V6.20353C0 5.77592 0.346125 5.42957 0.773398 5.42957H25.226C25.6533 5.42957 26 5.77592 26 6.20348Z" fill="#FFC73B"/>
<path d="M12.1166 7.2701C11.9479 7.4666 11.7825 7.66591 11.6204 7.86794C11.02 8.61579 10.4681 9.4014 9.96807 10.2199C9.81494 10.4707 9.66659 10.7243 9.52312 10.9808H4.25C4.55821 10.2811 4.8958 9.59475 5.26187 8.92357C5.92734 7.70268 6.68534 6.53461 7.5292 5.42963C7.73142 5.1647 7.93847 4.9035 8.15025 4.64616C8.27721 4.49092 8.40634 4.33787 8.53726 4.18542L9.98077 5.42963C10.0554 5.49356 10.13 5.55824 10.2044 5.62237C10.7724 6.11187 11.3406 6.60112 11.9085 7.09123C11.9781 7.15038 12.0471 7.21055 12.1166 7.2701ZM19.9843 10.9808H14.7108C14.5675 10.7242 14.4192 10.4706 14.2658 10.2199C13.7656 9.40153 13.2137 8.61594 12.6134 7.86794C12.451 7.66598 12.2854 7.46666 12.1166 7.27005C12.1861 7.21055 12.2552 7.15079 12.3248 7.09123C12.8934 6.60112 13.4615 6.11126 14.0294 5.62237C14.1039 5.55824 14.1785 5.49356 14.2531 5.42963C14.7344 5.01478 15.2158 4.60033 15.6967 4.18542C15.8275 4.33731 15.9565 4.49077 16.0836 4.64576C16.2956 4.90307 16.5027 5.1644 16.7047 5.42963C17.5486 6.5347 18.3067 7.70276 18.9724 8.92357C19.3385 9.59475 19.6761 10.2811 19.9843 10.9808Z" fill="#EFB025"/>
<path d="M13 7.27038C12.8311 7.46673 12.6657 7.66599 12.5037 7.86806C11.9032 8.61601 11.3513 9.4017 10.8513 10.2203C9.26244 12.8191 8.21575 15.7129 7.77428 18.7272C7.10798 17.8429 6.49307 16.8862 5.9398 15.8631C4.96663 16.4983 4.01545 17.2248 3.09961 18.0422C3.56783 14.8463 4.59905 11.759 6.14532 8.92364C6.97056 7.40959 7.93763 5.97737 9.0335 4.64629C9.16068 4.4912 9.28968 4.33761 9.42045 4.18555C9.97631 4.66453 10.5317 5.14351 11.0878 5.6225C11.6557 6.11195 12.2238 6.60124 12.7919 7.09136C12.8613 7.1505 12.9304 7.21067 13 7.27038ZM22.9007 18.0422C21.9849 17.2248 21.0337 16.4983 20.0605 15.8631C19.5073 16.8862 18.8924 17.8429 18.2261 18.7272C17.7847 15.7128 16.738 12.819 15.149 10.2202C14.6489 9.40176 14.097 8.6161 13.4967 7.86806C13.3343 7.66618 13.1688 7.46693 13 7.27038C13.0694 7.21067 13.1385 7.15091 13.2081 7.09136C13.7766 6.60124 14.3447 6.11139 14.9128 5.6225C15.4686 5.1429 16.0247 4.66453 16.5798 4.18555C16.7107 4.33743 16.8397 4.49089 16.9669 4.64588C18.0629 5.97707 19.0302 7.40943 19.8556 8.92364C21.4015 11.7591 22.4326 14.8464 22.9007 18.0422L22.9007 18.0422Z" fill="#FF4440"/>
<path d="M10.9307 7.27039H15.0708V10.9807H10.9307V7.27039Z" fill="#FF4440"/>
<path d="M19.8547 8.92369L15.1481 10.2203C14.648 9.4018 14.096 8.61614 13.4957 7.86811L13.2071 7.0914L12.999 6.53121L14.9119 5.62254L16.966 4.64587C18.062 5.97709 19.0293 7.40946 19.8547 8.92369Z" fill="#EA2F2F"/>
<path d="M13.0002 6.53125L12.7921 7.09143L12.5039 7.86814C11.9034 8.61609 11.3515 9.40178 10.8515 10.2204L6.14551 8.92372C6.97075 7.40966 7.93782 5.97745 9.03369 4.64636L11.0879 5.62252L13.0002 6.53125Z" fill="#EA2F2F"/>
<path d="M20.5108 0.243848L12.9994 3.8134L14.4423 7.69659L22.4598 5.48832C23.5083 5.19948 24.0844 4.07342 23.7053 3.05336L23.0436 1.27285C22.6647 0.252791 21.4934 -0.223041 20.5108 0.243848ZM5.48793 0.243848L12.9994 3.8134L11.5565 7.69659L3.5392 5.48832C2.49067 5.19948 1.9146 4.07342 2.29368 3.05336L2.95521 1.27285C3.33429 0.252791 4.50541 -0.223041 5.48793 0.243848Z" fill="#FF4440"/>
<path d="M14.7937 5.37396C14.7242 5.37407 14.6557 5.35662 14.5946 5.3232C14.5336 5.28978 14.482 5.24149 14.4446 5.18279C14.4153 5.13698 14.3953 5.08584 14.3858 5.03229C14.3762 4.97875 14.3773 4.92385 14.389 4.87072C14.4006 4.8176 14.4226 4.76729 14.4537 4.72268C14.4848 4.67807 14.5244 4.64002 14.5702 4.61072C14.6271 4.57443 15.98 3.71292 17.5332 3.08428C19.7723 2.17794 21.2676 2.22657 21.9769 3.2288C22.0084 3.2732 22.0308 3.32336 22.0429 3.37643C22.0549 3.42949 22.0564 3.48442 22.0473 3.53806C22.0381 3.5917 22.0185 3.64302 21.9895 3.68906C21.9605 3.73511 21.9227 3.77499 21.8783 3.80641C21.834 3.83786 21.7838 3.86025 21.7308 3.87231C21.6778 3.88438 21.623 3.88587 21.5694 3.87671C21.5158 3.86755 21.4645 3.84792 21.4185 3.81893C21.3725 3.78995 21.3327 3.75218 21.3013 3.70778C20.3396 2.34929 16.3412 4.46167 15.0163 5.30886C14.9498 5.35141 14.8726 5.374 14.7937 5.37396ZM11.1657 5.37396C11.0868 5.374 11.0095 5.35141 10.9431 5.30886C9.6182 4.46167 5.61978 2.34929 4.65814 3.70773C4.59465 3.79741 4.49817 3.85818 4.38991 3.87668C4.28165 3.89518 4.17048 3.86988 4.08086 3.80636C3.99127 3.74282 3.93058 3.64626 3.91214 3.53794C3.89369 3.42962 3.919 3.3184 3.98249 3.22875C4.69186 2.22657 6.18691 2.17789 8.42626 3.08423C9.97945 3.71271 11.3323 4.57438 11.3892 4.61072C11.4816 4.6699 11.5468 4.76341 11.5704 4.87067C11.594 4.97794 11.5741 5.09018 11.515 5.18274C11.4775 5.24141 11.4258 5.28968 11.3648 5.32309C11.3037 5.3565 11.2352 5.37403 11.1657 5.37396Z" fill="#EA2F2F"/>
<path d="M14.1774 2.47864H11.8217C11.177 2.47864 10.6543 3.00168 10.6543 3.64703V7.07166C10.6543 7.71701 11.177 8.24 11.8217 8.24H14.1774C14.8222 8.24 15.3449 7.71696 15.3449 7.07166V3.64703C15.3449 3.00168 14.8222 2.47864 14.1774 2.47864Z" fill="#EA2F2F"/>
<path d="M10.9297 10.9807H15.0698V26.0638H10.9297V10.9807Z" fill="#FF4440"/>
<path d="M10.9297 10.9807H15.0698V12.8035H10.9297V10.9807Z" fill="#EA2F2F"/>
</svg>
