<svg width="32" height="33" viewBox="0 0 32 33" fill="none" xmlns="http://www.w3.org/2000/svg">
<g clip-path="url(#clip0_257_19230)">
<path d="M22.792 21.8342H24.667V29.34H22.792V21.8342Z" fill="#D35F05"/>
<path d="M23.7295 21.8342H24.667V29.34H23.7295V21.8342Z" fill="#A14603"/>
<path d="M27.7295 25.587H29.6045V29.34H27.7295V25.587Z" fill="#D35F05"/>
<path d="M27.7295 25.587H29.6045V29.34H27.7295V25.587Z" fill="#A14603"/>
<path d="M17.8545 25.587H19.7295V29.34H17.8545V25.587Z" fill="#D35F05"/>
<path d="M19.4795 20.8967H27.9795V22.7717H19.4795V20.8967ZM26.4798 24.647H30.8546V26.522H26.4798V24.647ZM16.6045 24.647H20.9792V26.522H16.6045V24.647Z" fill="#FE9100"/>
<path d="M6.00879 16.0485H11.634V29.34H6.00879V16.0485Z" fill="#D35F05"/>
<path d="M8.82129 16.0485H11.6339V29.34H8.82129V16.0485Z" fill="#A14603"/>
<path d="M15.4837 9.33562C15.5137 9.07763 15.5287 8.81775 15.5287 8.55807C15.5287 4.85939 12.5196 1.85034 8.82101 1.85034C5.1224 1.85034 2.11329 4.85939 2.11329 8.55807C2.11329 8.81775 2.12835 9.07763 2.15829 9.33562C0.717921 10.4228 -0.0942007 12.1507 0.00873645 13.987C0.162798 16.7366 2.35142 18.938 5.09972 19.1076C5.21378 19.1146 5.32928 19.1183 5.44303 19.1183C6.18146 19.1183 6.89796 18.9725 7.57271 18.6851C7.9673 18.5166 8.39201 18.4299 8.82108 18.4305C9.25013 18.4299 9.67481 18.5166 10.0694 18.6851C10.744 18.9725 11.4605 19.1182 12.1989 19.1183C12.3127 19.1183 12.4282 19.1146 12.5423 19.1076C15.2906 18.9381 17.4792 16.7367 17.6334 13.987C17.7362 12.1507 16.9241 10.4228 15.4837 9.33562Z" fill="#56C125"/>
<path d="M0 28.4025H31.9999V30.2775H0V28.4025Z" fill="#ABE233"/>
<path d="M23.7295 9.43835C25.5589 9.43835 27.042 7.9553 27.042 6.12585C27.042 4.29641 25.5589 2.81335 23.7295 2.81335C21.9 2.81335 20.417 4.29641 20.417 6.12585C20.417 7.9553 21.9 9.43835 23.7295 9.43835Z" fill="#FFDE46"/>
<path d="M26.4795 24.647H30.8542V26.522H26.4795V24.647Z" fill="#D35F05"/>
<path d="M27.042 6.12585C27.042 4.29929 25.556 2.81335 23.7295 2.81335V9.43835C25.5561 9.43835 27.042 7.95242 27.042 6.12585Z" fill="#FEBF01"/>
<path d="M23.7295 20.8967H27.9795V22.7717H23.7295V20.8967Z" fill="#D35F05"/>
<path d="M23.7295 28.4025H32.0002V30.2775H23.7295V28.4025Z" fill="#56C125"/>
<path d="M15.484 9.3355C15.514 9.0775 15.529 8.81763 15.529 8.55794C15.529 4.85927 12.5199 1.85022 8.82129 1.85022V18.4303C9.25034 18.4298 9.67503 18.5164 10.0696 18.685C10.7442 18.9724 11.4607 19.1181 12.1992 19.1182C12.3129 19.1182 12.4284 19.1145 12.5425 19.1075C15.2908 18.938 17.4794 16.7366 17.6336 13.9869C17.7364 12.1506 16.9244 10.4227 15.484 9.3355Z" fill="#019A5A"/>
</g>
<defs>
<clipPath id="clip0_257_19230">
<rect width="32" height="32" fill="white" transform="translate(0 0.0638428)"/>
</clipPath>
</defs>
</svg>
